%FSLAX45Y45*%
G04 Gerber Fmt 4.5, Leading zero omitted, Abs format (unit mm)*
G04 Created by KiCad (PCBNEW (5.1.6)-1) date 2022-11-05 15:29:07*
%MOMM*%
%LPD*%
G01*
G04 APERTURE LIST*
%TA.AperFunction,Profile*%
%ADD10C,0.050000*%
%TD*%
%ADD11C,0.200000*%
%ADD12C,0.300000*%
G04 APERTURE END LIST*
D10*
X9677400Y-6731000D02*
X9677400Y-8788400D01*
X10083800Y-6324600D02*
X9677400Y-6731000D01*
X12852400Y-6324600D02*
X10083800Y-6324600D01*
X13157200Y-6019800D02*
X12852400Y-6324600D01*
X21437600Y-6019800D02*
X13157200Y-6019800D01*
X21894800Y-6477000D02*
X21437600Y-6019800D01*
X21894800Y-7213600D02*
X21894800Y-6477000D01*
X21310600Y-7797800D02*
X21894800Y-7213600D01*
X21310600Y-8788400D02*
X21310600Y-7797800D01*
X9677400Y-8788400D02*
X21310600Y-8788400D01*
D11*
D12*
X9961328Y-9256614D02*
X9961328Y-8956614D01*
X10032757Y-8956614D01*
X10075614Y-8970900D01*
X10104186Y-8999472D01*
X10118471Y-9028043D01*
X10132757Y-9085186D01*
X10132757Y-9128043D01*
X10118471Y-9185186D01*
X10104186Y-9213757D01*
X10075614Y-9242329D01*
X10032757Y-9256614D01*
X9961328Y-9256614D01*
X10261328Y-9256614D02*
X10261328Y-9056614D01*
X10261328Y-9113757D02*
X10275614Y-9085186D01*
X10289900Y-9070900D01*
X10318471Y-9056614D01*
X10347043Y-9056614D01*
X10447043Y-9256614D02*
X10447043Y-9056614D01*
X10447043Y-8956614D02*
X10432757Y-8970900D01*
X10447043Y-8985186D01*
X10461328Y-8970900D01*
X10447043Y-8956614D01*
X10447043Y-8985186D01*
X10632757Y-9256614D02*
X10604186Y-9242329D01*
X10589900Y-9213757D01*
X10589900Y-8956614D01*
X10789900Y-9256614D02*
X10761328Y-9242329D01*
X10747043Y-9213757D01*
X10747043Y-8956614D01*
X11132757Y-9256614D02*
X11132757Y-8956614D01*
X11232757Y-9170900D01*
X11332757Y-8956614D01*
X11332757Y-9256614D01*
X11604186Y-9256614D02*
X11604186Y-9099472D01*
X11589900Y-9070900D01*
X11561328Y-9056614D01*
X11504186Y-9056614D01*
X11475614Y-9070900D01*
X11604186Y-9242329D02*
X11575614Y-9256614D01*
X11504186Y-9256614D01*
X11475614Y-9242329D01*
X11461328Y-9213757D01*
X11461328Y-9185186D01*
X11475614Y-9156614D01*
X11504186Y-9142329D01*
X11575614Y-9142329D01*
X11604186Y-9128043D01*
X11747043Y-9056614D02*
X11747043Y-9356614D01*
X11747043Y-9070900D02*
X11775614Y-9056614D01*
X11832757Y-9056614D01*
X11861328Y-9070900D01*
X11875614Y-9085186D01*
X11889900Y-9113757D01*
X11889900Y-9199472D01*
X11875614Y-9228043D01*
X11861328Y-9242329D01*
X11832757Y-9256614D01*
X11775614Y-9256614D01*
X11747043Y-9242329D01*
X12018471Y-9228043D02*
X12032757Y-9242329D01*
X12018471Y-9256614D01*
X12004186Y-9242329D01*
X12018471Y-9228043D01*
X12018471Y-9256614D01*
X12018471Y-9070900D02*
X12032757Y-9085186D01*
X12018471Y-9099472D01*
X12004186Y-9085186D01*
X12018471Y-9070900D01*
X12018471Y-9099472D01*
M02*
