%FSLAX45Y45*%
G04 Gerber Fmt 4.5, Leading zero omitted, Abs format (unit mm)*
G04 Created by KiCad (PCBNEW (5.1.6)-1) date 2022-11-05 15:29:07*
%MOMM*%
%LPD*%
G01*
G04 APERTURE LIST*
%TA.AperFunction,Profile*%
%ADD10C,0.050000*%
%TD*%
%ADD11C,0.200000*%
%ADD12C,0.300000*%
G04 APERTURE END LIST*
D10*
X9677400Y-6731000D02*
X9677400Y-8788400D01*
X10083800Y-6324600D02*
X9677400Y-6731000D01*
X12852400Y-6324600D02*
X10083800Y-6324600D01*
X13157200Y-6019800D02*
X12852400Y-6324600D01*
X21437600Y-6019800D02*
X13157200Y-6019800D01*
X21894800Y-6477000D02*
X21437600Y-6019800D01*
X21894800Y-7213600D02*
X21894800Y-6477000D01*
X21310600Y-7797800D02*
X21894800Y-7213600D01*
X21310600Y-8788400D02*
X21310600Y-7797800D01*
X9677400Y-8788400D02*
X21310600Y-8788400D01*
D11*
X10089200Y-6457000D02*
X10129200Y-6497000D01*
X10129200Y-6457000D02*
X10089200Y-6497000D01*
X10089200Y-6914200D02*
X10129200Y-6954200D01*
X10129200Y-6914200D02*
X10089200Y-6954200D01*
X10267000Y-7828600D02*
X10307000Y-7868600D01*
X10307000Y-7828600D02*
X10267000Y-7868600D01*
X10417985Y-7750985D02*
X10457985Y-7790985D01*
X10457985Y-7750985D02*
X10417985Y-7790985D01*
X10956815Y-7087985D02*
X10996815Y-7127985D01*
X10996815Y-7087985D02*
X10956815Y-7127985D01*
X11040732Y-7020000D02*
X11080732Y-7060000D01*
X11080732Y-7020000D02*
X11040732Y-7060000D01*
X11116808Y-6950000D02*
X11156808Y-6990000D01*
X11156808Y-6950000D02*
X11116808Y-6990000D01*
X11126825Y-6802630D02*
X11166825Y-6842630D01*
X11166825Y-6802630D02*
X11126825Y-6842630D01*
X11190642Y-6880000D02*
X11230642Y-6920000D01*
X11230642Y-6880000D02*
X11190642Y-6920000D01*
X11384600Y-6406200D02*
X11424600Y-6446200D01*
X11424600Y-6406200D02*
X11384600Y-6446200D01*
X11511600Y-7701600D02*
X11551600Y-7741600D01*
X11551600Y-7701600D02*
X11511600Y-7741600D01*
X11613200Y-6732630D02*
X11653200Y-6772630D01*
X11653200Y-6732630D02*
X11613200Y-6772630D01*
X11841800Y-6660200D02*
X11881800Y-6700200D01*
X11881800Y-6660200D02*
X11841800Y-6700200D01*
X11994200Y-6660200D02*
X12034200Y-6700200D01*
X12034200Y-6660200D02*
X11994200Y-6700200D01*
X12095800Y-7168200D02*
X12135800Y-7208200D01*
X12135800Y-7168200D02*
X12095800Y-7208200D01*
X12222800Y-7473000D02*
X12262800Y-7513000D01*
X12262800Y-7473000D02*
X12222800Y-7513000D01*
X12349800Y-7476700D02*
X12389800Y-7516700D01*
X12389800Y-7476700D02*
X12349800Y-7516700D01*
X12603800Y-7473000D02*
X12643800Y-7513000D01*
X12643800Y-7473000D02*
X12603800Y-7513000D01*
X12730800Y-6939600D02*
X12770800Y-6979600D01*
X12770800Y-6939600D02*
X12730800Y-6979600D01*
X12730800Y-7193600D02*
X12770800Y-7233600D01*
X12770800Y-7193600D02*
X12730800Y-7233600D01*
X12857800Y-7193600D02*
X12897800Y-7233600D01*
X12897800Y-7193600D02*
X12857800Y-7233600D01*
X12984800Y-7473000D02*
X13024800Y-7513000D01*
X13024800Y-7473000D02*
X12984800Y-7513000D01*
X14077000Y-6406200D02*
X14117000Y-6446200D01*
X14117000Y-6406200D02*
X14077000Y-6446200D01*
X14153200Y-7625400D02*
X14193200Y-7665400D01*
X14193200Y-7625400D02*
X14153200Y-7665400D01*
X14280200Y-6761800D02*
X14320200Y-6801800D01*
X14320200Y-6761800D02*
X14280200Y-6801800D01*
X14305600Y-7701600D02*
X14345600Y-7741600D01*
X14345600Y-7701600D02*
X14305600Y-7741600D01*
X14483865Y-7752865D02*
X14523865Y-7792865D01*
X14523865Y-7752865D02*
X14483865Y-7792865D01*
X14681901Y-7168200D02*
X14721901Y-7208200D01*
X14721901Y-7168200D02*
X14681901Y-7208200D01*
X14686600Y-7701600D02*
X14726600Y-7741600D01*
X14726600Y-7701600D02*
X14686600Y-7741600D01*
X14915200Y-6761800D02*
X14955200Y-6801800D01*
X14955200Y-6761800D02*
X14915200Y-6801800D01*
X14940600Y-7701600D02*
X14980600Y-7741600D01*
X14980600Y-7701600D02*
X14940600Y-7741600D01*
X15194600Y-7701600D02*
X15234600Y-7741600D01*
X15234600Y-7701600D02*
X15194600Y-7741600D01*
X15309365Y-6774035D02*
X15349365Y-6814035D01*
X15349365Y-6774035D02*
X15309365Y-6814035D01*
X15309365Y-7079765D02*
X15349365Y-7119765D01*
X15349365Y-7079765D02*
X15309365Y-7119765D01*
X15448600Y-6838000D02*
X15488600Y-6878000D01*
X15488600Y-6838000D02*
X15448600Y-6878000D01*
X15544401Y-6361199D02*
X15584401Y-6401199D01*
X15584401Y-6361199D02*
X15544401Y-6401199D01*
X15677200Y-7676200D02*
X15717200Y-7716200D01*
X15717200Y-7676200D02*
X15677200Y-7716200D01*
X15880400Y-7676200D02*
X15920400Y-7716200D01*
X15920400Y-7676200D02*
X15880400Y-7716200D01*
X17099600Y-6457000D02*
X17139600Y-6497000D01*
X17139600Y-6457000D02*
X17099600Y-6497000D01*
X17099600Y-6914200D02*
X17139600Y-6954200D01*
X17139600Y-6914200D02*
X17099600Y-6954200D01*
X17480600Y-6431600D02*
X17520600Y-6471600D01*
X17520600Y-6431600D02*
X17480600Y-6471600D01*
X17760000Y-6431600D02*
X17800000Y-6471600D01*
X17800000Y-6431600D02*
X17760000Y-6471600D01*
X18014000Y-6431600D02*
X18054000Y-6471600D01*
X18054000Y-6431600D02*
X18014000Y-6471600D01*
X18115600Y-7371400D02*
X18155600Y-7411400D01*
X18155600Y-7371400D02*
X18115600Y-7411400D01*
X18242600Y-7371400D02*
X18282600Y-7411400D01*
X18282600Y-7371400D02*
X18242600Y-7411400D01*
X18369600Y-7371400D02*
X18409600Y-7411400D01*
X18409600Y-7371400D02*
X18369600Y-7411400D01*
X18496600Y-7371400D02*
X18536600Y-7411400D01*
X18536600Y-7371400D02*
X18496600Y-7411400D01*
X18928400Y-7079600D02*
X18968400Y-7119600D01*
X18968400Y-7079600D02*
X18928400Y-7119600D01*
X19016757Y-7009600D02*
X19056757Y-7049600D01*
X19056757Y-7009600D02*
X19016757Y-7049600D01*
X19106200Y-6939600D02*
X19146200Y-6979600D01*
X19146200Y-6939600D02*
X19106200Y-6979600D01*
X19868200Y-7346000D02*
X19908200Y-7386000D01*
X19908200Y-7346000D02*
X19868200Y-7386000D01*
X21671600Y-6380800D02*
X21711600Y-6420800D01*
X21711600Y-6380800D02*
X21671600Y-6420800D01*
X19725200Y-6632600D02*
G75*
G03*
X19725200Y-6632600I-40000J0D01*
G01*
X19725200Y-6832600D02*
G75*
G03*
X19725200Y-6832600I-40000J0D01*
G01*
X19925200Y-6632600D02*
G75*
G03*
X19925200Y-6632600I-40000J0D01*
G01*
X19925200Y-6832600D02*
G75*
G03*
X19925200Y-6832600I-40000J0D01*
G01*
X20125200Y-6632600D02*
G75*
G03*
X20125200Y-6632600I-40000J0D01*
G01*
X20125200Y-6832600D02*
G75*
G03*
X20125200Y-6832600I-40000J0D01*
G01*
X20325200Y-6632600D02*
G75*
G03*
X20325200Y-6632600I-40000J0D01*
G01*
X20325200Y-6832600D02*
G75*
G03*
X20325200Y-6832600I-40000J0D01*
G01*
X20525200Y-6632600D02*
G75*
G03*
X20525200Y-6632600I-40000J0D01*
G01*
X20525200Y-6832600D02*
G75*
G03*
X20525200Y-6832600I-40000J0D01*
G01*
X20725200Y-6632600D02*
G75*
G03*
X20725200Y-6632600I-40000J0D01*
G01*
X20725200Y-6832600D02*
G75*
G03*
X20725200Y-6832600I-40000J0D01*
G01*
X20925200Y-6632600D02*
G75*
G03*
X20925200Y-6632600I-40000J0D01*
G01*
X20925200Y-6832600D02*
G75*
G03*
X20925200Y-6832600I-40000J0D01*
G01*
X21125200Y-6632600D02*
G75*
G03*
X21125200Y-6632600I-40000J0D01*
G01*
X21125200Y-6832600D02*
G75*
G03*
X21125200Y-6832600I-40000J0D01*
G01*
X21325200Y-6632600D02*
G75*
G03*
X21325200Y-6632600I-40000J0D01*
G01*
X21325200Y-6832600D02*
G75*
G03*
X21325200Y-6832600I-40000J0D01*
G01*
X21525200Y-6632600D02*
G75*
G03*
X21525200Y-6632600I-40000J0D01*
G01*
X21525200Y-6832600D02*
G75*
G03*
X21525200Y-6832600I-40000J0D01*
G01*
X21725200Y-6632600D02*
G75*
G03*
X21725200Y-6632600I-40000J0D01*
G01*
X21725200Y-6832600D02*
G75*
G03*
X21725200Y-6832600I-40000J0D01*
G01*
X10162100Y-7992940D02*
X10162100Y-8102160D01*
X10107490Y-8047550D02*
X10216710Y-8047550D01*
X10162100Y-8478080D02*
X10162100Y-8587300D01*
X10107490Y-8532690D02*
X10216710Y-8532690D01*
X10416100Y-7992940D02*
X10416100Y-8102160D01*
X10361490Y-8047550D02*
X10470710Y-8047550D01*
X10416100Y-8478080D02*
X10416100Y-8587300D01*
X10361490Y-8532690D02*
X10470710Y-8532690D01*
X10670100Y-7992940D02*
X10670100Y-8102160D01*
X10615490Y-8047550D02*
X10724710Y-8047550D01*
X10670100Y-8478080D02*
X10670100Y-8587300D01*
X10615490Y-8532690D02*
X10724710Y-8532690D01*
X10924100Y-7992940D02*
X10924100Y-8102160D01*
X10869490Y-8047550D02*
X10978710Y-8047550D01*
X10924100Y-8478080D02*
X10924100Y-8587300D01*
X10869490Y-8532690D02*
X10978710Y-8532690D01*
X11178100Y-7992940D02*
X11178100Y-8102160D01*
X11123490Y-8047550D02*
X11232710Y-8047550D01*
X11178100Y-8478080D02*
X11178100Y-8587300D01*
X11123490Y-8532690D02*
X11232710Y-8532690D01*
X11432100Y-7992940D02*
X11432100Y-8102160D01*
X11377490Y-8047550D02*
X11486710Y-8047550D01*
X11432100Y-8478080D02*
X11432100Y-8587300D01*
X11377490Y-8532690D02*
X11486710Y-8532690D01*
X11686100Y-7992940D02*
X11686100Y-8102160D01*
X11631490Y-8047550D02*
X11740710Y-8047550D01*
X11686100Y-8478080D02*
X11686100Y-8587300D01*
X11631490Y-8532690D02*
X11740710Y-8532690D01*
X11940100Y-7992940D02*
X11940100Y-8102160D01*
X11885490Y-8047550D02*
X11994710Y-8047550D01*
X11940100Y-8478080D02*
X11940100Y-8587300D01*
X11885490Y-8532690D02*
X11994710Y-8532690D01*
X12194100Y-7992940D02*
X12194100Y-8102160D01*
X12139490Y-8047550D02*
X12248710Y-8047550D01*
X12194100Y-8478080D02*
X12194100Y-8587300D01*
X12139490Y-8532690D02*
X12248710Y-8532690D01*
X12448100Y-7992940D02*
X12448100Y-8102160D01*
X12393490Y-8047550D02*
X12502710Y-8047550D01*
X12448100Y-8478080D02*
X12448100Y-8587300D01*
X12393490Y-8532690D02*
X12502710Y-8532690D01*
X12702100Y-7992940D02*
X12702100Y-8102160D01*
X12647490Y-8047550D02*
X12756710Y-8047550D01*
X12702100Y-8478080D02*
X12702100Y-8587300D01*
X12647490Y-8532690D02*
X12756710Y-8532690D01*
X12956100Y-7992940D02*
X12956100Y-8102160D01*
X12901490Y-8047550D02*
X13010710Y-8047550D01*
X12956100Y-8478080D02*
X12956100Y-8587300D01*
X12901490Y-8532690D02*
X13010710Y-8532690D01*
X13210100Y-7992940D02*
X13210100Y-8102160D01*
X13155490Y-8047550D02*
X13264710Y-8047550D01*
X13210100Y-8478080D02*
X13210100Y-8587300D01*
X13155490Y-8532690D02*
X13264710Y-8532690D01*
X13464100Y-7992940D02*
X13464100Y-8102160D01*
X13409490Y-8047550D02*
X13518710Y-8047550D01*
X13464100Y-8478080D02*
X13464100Y-8587300D01*
X13409490Y-8532690D02*
X13518710Y-8532690D01*
X13718100Y-7992940D02*
X13718100Y-8102160D01*
X13663490Y-8047550D02*
X13772710Y-8047550D01*
X13718100Y-8478080D02*
X13718100Y-8587300D01*
X13663490Y-8532690D02*
X13772710Y-8532690D01*
X13972100Y-7992940D02*
X13972100Y-8102160D01*
X13917490Y-8047550D02*
X14026710Y-8047550D01*
X13972100Y-8478080D02*
X13972100Y-8587300D01*
X13917490Y-8532690D02*
X14026710Y-8532690D01*
X14226100Y-7992940D02*
X14226100Y-8102160D01*
X14171490Y-8047550D02*
X14280710Y-8047550D01*
X14226100Y-8478080D02*
X14226100Y-8587300D01*
X14171490Y-8532690D02*
X14280710Y-8532690D01*
X14480100Y-7992940D02*
X14480100Y-8102160D01*
X14425490Y-8047550D02*
X14534710Y-8047550D01*
X14480100Y-8478080D02*
X14480100Y-8587300D01*
X14425490Y-8532690D02*
X14534710Y-8532690D01*
X14734100Y-7992940D02*
X14734100Y-8102160D01*
X14679490Y-8047550D02*
X14788710Y-8047550D01*
X14734100Y-8478080D02*
X14734100Y-8587300D01*
X14679490Y-8532690D02*
X14788710Y-8532690D01*
X14988100Y-7992940D02*
X14988100Y-8102160D01*
X14933490Y-8047550D02*
X15042710Y-8047550D01*
X14988100Y-8478080D02*
X14988100Y-8587300D01*
X14933490Y-8532690D02*
X15042710Y-8532690D01*
X15242100Y-7992940D02*
X15242100Y-8102160D01*
X15187490Y-8047550D02*
X15296710Y-8047550D01*
X15242100Y-8478080D02*
X15242100Y-8587300D01*
X15187490Y-8532690D02*
X15296710Y-8532690D01*
X15496100Y-7992940D02*
X15496100Y-8102160D01*
X15441490Y-8047550D02*
X15550710Y-8047550D01*
X15496100Y-8478080D02*
X15496100Y-8587300D01*
X15441490Y-8532690D02*
X15550710Y-8532690D01*
X15750100Y-7992940D02*
X15750100Y-8102160D01*
X15695490Y-8047550D02*
X15804710Y-8047550D01*
X15750100Y-8478080D02*
X15750100Y-8587300D01*
X15695490Y-8532690D02*
X15804710Y-8532690D01*
X16004100Y-7992940D02*
X16004100Y-8102160D01*
X15949490Y-8047550D02*
X16058710Y-8047550D01*
X16004100Y-8478080D02*
X16004100Y-8587300D01*
X15949490Y-8532690D02*
X16058710Y-8532690D01*
X16258100Y-7992940D02*
X16258100Y-8102160D01*
X16203490Y-8047550D02*
X16312710Y-8047550D01*
X16258100Y-8478080D02*
X16258100Y-8587300D01*
X16203490Y-8532690D02*
X16312710Y-8532690D01*
X16512100Y-7992940D02*
X16512100Y-8102160D01*
X16457490Y-8047550D02*
X16566710Y-8047550D01*
X16512100Y-8478080D02*
X16512100Y-8587300D01*
X16457490Y-8532690D02*
X16566710Y-8532690D01*
X16766100Y-7992940D02*
X16766100Y-8102160D01*
X16711490Y-8047550D02*
X16820710Y-8047550D01*
X16766100Y-8478080D02*
X16766100Y-8587300D01*
X16711490Y-8532690D02*
X16820710Y-8532690D01*
X17020100Y-7992940D02*
X17020100Y-8102160D01*
X16965490Y-8047550D02*
X17074710Y-8047550D01*
X17020100Y-8478080D02*
X17020100Y-8587300D01*
X16965490Y-8532690D02*
X17074710Y-8532690D01*
X17274100Y-7992940D02*
X17274100Y-8102160D01*
X17219490Y-8047550D02*
X17328710Y-8047550D01*
X17274100Y-8478080D02*
X17274100Y-8587300D01*
X17219490Y-8532690D02*
X17328710Y-8532690D01*
X17528100Y-7992940D02*
X17528100Y-8102160D01*
X17473490Y-8047550D02*
X17582710Y-8047550D01*
X17528100Y-8478080D02*
X17528100Y-8587300D01*
X17473490Y-8532690D02*
X17582710Y-8532690D01*
X17782100Y-7992940D02*
X17782100Y-8102160D01*
X17727490Y-8047550D02*
X17836710Y-8047550D01*
X17782100Y-8478080D02*
X17782100Y-8587300D01*
X17727490Y-8532690D02*
X17836710Y-8532690D01*
X18036100Y-7992940D02*
X18036100Y-8102160D01*
X17981490Y-8047550D02*
X18090710Y-8047550D01*
X18036100Y-8478080D02*
X18036100Y-8587300D01*
X17981490Y-8532690D02*
X18090710Y-8532690D01*
X18290100Y-7992940D02*
X18290100Y-8102160D01*
X18235490Y-8047550D02*
X18344710Y-8047550D01*
X18290100Y-8478080D02*
X18290100Y-8587300D01*
X18235490Y-8532690D02*
X18344710Y-8532690D01*
X18544100Y-7992940D02*
X18544100Y-8102160D01*
X18489490Y-8047550D02*
X18598710Y-8047550D01*
X18544100Y-8478080D02*
X18544100Y-8587300D01*
X18489490Y-8532690D02*
X18598710Y-8532690D01*
X18798100Y-7992940D02*
X18798100Y-8102160D01*
X18743490Y-8047550D02*
X18852710Y-8047550D01*
X18798100Y-8478080D02*
X18798100Y-8587300D01*
X18743490Y-8532690D02*
X18852710Y-8532690D01*
X19052100Y-7992940D02*
X19052100Y-8102160D01*
X18997490Y-8047550D02*
X19106710Y-8047550D01*
X19052100Y-8478080D02*
X19052100Y-8587300D01*
X18997490Y-8532690D02*
X19106710Y-8532690D01*
X19306100Y-7992940D02*
X19306100Y-8102160D01*
X19251490Y-8047550D02*
X19360710Y-8047550D01*
X19306100Y-8478080D02*
X19306100Y-8587300D01*
X19251490Y-8532690D02*
X19360710Y-8532690D01*
X19560100Y-7992940D02*
X19560100Y-8102160D01*
X19505490Y-8047550D02*
X19614710Y-8047550D01*
X19560100Y-8478080D02*
X19560100Y-8587300D01*
X19505490Y-8532690D02*
X19614710Y-8532690D01*
X19814100Y-7992940D02*
X19814100Y-8102160D01*
X19759490Y-8047550D02*
X19868710Y-8047550D01*
X19814100Y-8478080D02*
X19814100Y-8587300D01*
X19759490Y-8532690D02*
X19868710Y-8532690D01*
X20068100Y-7992940D02*
X20068100Y-8102160D01*
X20013490Y-8047550D02*
X20122710Y-8047550D01*
X20068100Y-8478080D02*
X20068100Y-8587300D01*
X20013490Y-8532690D02*
X20122710Y-8532690D01*
X20322100Y-7992940D02*
X20322100Y-8102160D01*
X20267490Y-8047550D02*
X20376710Y-8047550D01*
X20322100Y-8478080D02*
X20322100Y-8587300D01*
X20267490Y-8532690D02*
X20376710Y-8532690D01*
X20576100Y-7992940D02*
X20576100Y-8102160D01*
X20521490Y-8047550D02*
X20630710Y-8047550D01*
X20576100Y-8478080D02*
X20576100Y-8587300D01*
X20521490Y-8532690D02*
X20630710Y-8532690D01*
X20830100Y-7992940D02*
X20830100Y-8102160D01*
X20775490Y-8047550D02*
X20884710Y-8047550D01*
X20830100Y-8478080D02*
X20830100Y-8587300D01*
X20775490Y-8532690D02*
X20884710Y-8532690D01*
D12*
X9961328Y-9256614D02*
X9961328Y-8956614D01*
X10032757Y-8956614D01*
X10075614Y-8970900D01*
X10104186Y-8999472D01*
X10118471Y-9028043D01*
X10132757Y-9085186D01*
X10132757Y-9128043D01*
X10118471Y-9185186D01*
X10104186Y-9213757D01*
X10075614Y-9242329D01*
X10032757Y-9256614D01*
X9961328Y-9256614D01*
X10261328Y-9256614D02*
X10261328Y-9056614D01*
X10261328Y-9113757D02*
X10275614Y-9085186D01*
X10289900Y-9070900D01*
X10318471Y-9056614D01*
X10347043Y-9056614D01*
X10447043Y-9256614D02*
X10447043Y-9056614D01*
X10447043Y-8956614D02*
X10432757Y-8970900D01*
X10447043Y-8985186D01*
X10461328Y-8970900D01*
X10447043Y-8956614D01*
X10447043Y-8985186D01*
X10632757Y-9256614D02*
X10604186Y-9242329D01*
X10589900Y-9213757D01*
X10589900Y-8956614D01*
X10789900Y-9256614D02*
X10761328Y-9242329D01*
X10747043Y-9213757D01*
X10747043Y-8956614D01*
X11132757Y-9256614D02*
X11132757Y-8956614D01*
X11232757Y-9170900D01*
X11332757Y-8956614D01*
X11332757Y-9256614D01*
X11604186Y-9256614D02*
X11604186Y-9099472D01*
X11589900Y-9070900D01*
X11561328Y-9056614D01*
X11504186Y-9056614D01*
X11475614Y-9070900D01*
X11604186Y-9242329D02*
X11575614Y-9256614D01*
X11504186Y-9256614D01*
X11475614Y-9242329D01*
X11461328Y-9213757D01*
X11461328Y-9185186D01*
X11475614Y-9156614D01*
X11504186Y-9142329D01*
X11575614Y-9142329D01*
X11604186Y-9128043D01*
X11747043Y-9056614D02*
X11747043Y-9356614D01*
X11747043Y-9070900D02*
X11775614Y-9056614D01*
X11832757Y-9056614D01*
X11861328Y-9070900D01*
X11875614Y-9085186D01*
X11889900Y-9113757D01*
X11889900Y-9199472D01*
X11875614Y-9228043D01*
X11861328Y-9242329D01*
X11832757Y-9256614D01*
X11775614Y-9256614D01*
X11747043Y-9242329D01*
X12018471Y-9228043D02*
X12032757Y-9242329D01*
X12018471Y-9256614D01*
X12004186Y-9242329D01*
X12018471Y-9228043D01*
X12018471Y-9256614D01*
X12018471Y-9070900D02*
X12032757Y-9085186D01*
X12018471Y-9099472D01*
X12004186Y-9085186D01*
X12018471Y-9070900D01*
X12018471Y-9099472D01*
X9634900Y-9730900D02*
X9674900Y-9770900D01*
X9674900Y-9730900D02*
X9634900Y-9770900D01*
X10018471Y-9586614D02*
X10047043Y-9586614D01*
X10075614Y-9600900D01*
X10089900Y-9615186D01*
X10104186Y-9643757D01*
X10118471Y-9700900D01*
X10118471Y-9772329D01*
X10104186Y-9829472D01*
X10089900Y-9858043D01*
X10075614Y-9872329D01*
X10047043Y-9886614D01*
X10018471Y-9886614D01*
X9989900Y-9872329D01*
X9975614Y-9858043D01*
X9961328Y-9829472D01*
X9947043Y-9772329D01*
X9947043Y-9700900D01*
X9961328Y-9643757D01*
X9975614Y-9615186D01*
X9989900Y-9600900D01*
X10018471Y-9586614D01*
X10247043Y-9858043D02*
X10261328Y-9872329D01*
X10247043Y-9886614D01*
X10232757Y-9872329D01*
X10247043Y-9858043D01*
X10247043Y-9886614D01*
X10518471Y-9686614D02*
X10518471Y-9886614D01*
X10447043Y-9572329D02*
X10375614Y-9786614D01*
X10561328Y-9786614D01*
X10732757Y-9586614D02*
X10761328Y-9586614D01*
X10789900Y-9600900D01*
X10804186Y-9615186D01*
X10818471Y-9643757D01*
X10832757Y-9700900D01*
X10832757Y-9772329D01*
X10818471Y-9829472D01*
X10804186Y-9858043D01*
X10789900Y-9872329D01*
X10761328Y-9886614D01*
X10732757Y-9886614D01*
X10704186Y-9872329D01*
X10689900Y-9858043D01*
X10675614Y-9829472D01*
X10661328Y-9772329D01*
X10661328Y-9700900D01*
X10675614Y-9643757D01*
X10689900Y-9615186D01*
X10704186Y-9600900D01*
X10732757Y-9586614D01*
X10961328Y-9886614D02*
X10961328Y-9686614D01*
X10961328Y-9715186D02*
X10975614Y-9700900D01*
X11004186Y-9686614D01*
X11047043Y-9686614D01*
X11075614Y-9700900D01*
X11089900Y-9729472D01*
X11089900Y-9886614D01*
X11089900Y-9729472D02*
X11104186Y-9700900D01*
X11132757Y-9686614D01*
X11175614Y-9686614D01*
X11204186Y-9700900D01*
X11218471Y-9729472D01*
X11218471Y-9886614D01*
X11361328Y-9886614D02*
X11361328Y-9686614D01*
X11361328Y-9715186D02*
X11375614Y-9700900D01*
X11404186Y-9686614D01*
X11447043Y-9686614D01*
X11475614Y-9700900D01*
X11489900Y-9729472D01*
X11489900Y-9886614D01*
X11489900Y-9729472D02*
X11504186Y-9700900D01*
X11532757Y-9686614D01*
X11575614Y-9686614D01*
X11604186Y-9700900D01*
X11618471Y-9729472D01*
X11618471Y-9886614D01*
X12204186Y-9572329D02*
X11947043Y-9958043D01*
X12589900Y-9586614D02*
X12618471Y-9586614D01*
X12647043Y-9600900D01*
X12661328Y-9615186D01*
X12675614Y-9643757D01*
X12689900Y-9700900D01*
X12689900Y-9772329D01*
X12675614Y-9829472D01*
X12661328Y-9858043D01*
X12647043Y-9872329D01*
X12618471Y-9886614D01*
X12589900Y-9886614D01*
X12561328Y-9872329D01*
X12547043Y-9858043D01*
X12532757Y-9829472D01*
X12518471Y-9772329D01*
X12518471Y-9700900D01*
X12532757Y-9643757D01*
X12547043Y-9615186D01*
X12561328Y-9600900D01*
X12589900Y-9586614D01*
X12818471Y-9858043D02*
X12832757Y-9872329D01*
X12818471Y-9886614D01*
X12804186Y-9872329D01*
X12818471Y-9858043D01*
X12818471Y-9886614D01*
X13018471Y-9586614D02*
X13047043Y-9586614D01*
X13075614Y-9600900D01*
X13089900Y-9615186D01*
X13104186Y-9643757D01*
X13118471Y-9700900D01*
X13118471Y-9772329D01*
X13104186Y-9829472D01*
X13089900Y-9858043D01*
X13075614Y-9872329D01*
X13047043Y-9886614D01*
X13018471Y-9886614D01*
X12989900Y-9872329D01*
X12975614Y-9858043D01*
X12961328Y-9829472D01*
X12947043Y-9772329D01*
X12947043Y-9700900D01*
X12961328Y-9643757D01*
X12975614Y-9615186D01*
X12989900Y-9600900D01*
X13018471Y-9586614D01*
X13404186Y-9886614D02*
X13232757Y-9886614D01*
X13318471Y-9886614D02*
X13318471Y-9586614D01*
X13289900Y-9629472D01*
X13261328Y-9658043D01*
X13232757Y-9672329D01*
X13661328Y-9586614D02*
X13604186Y-9586614D01*
X13575614Y-9600900D01*
X13561328Y-9615186D01*
X13532757Y-9658043D01*
X13518471Y-9715186D01*
X13518471Y-9829472D01*
X13532757Y-9858043D01*
X13547043Y-9872329D01*
X13575614Y-9886614D01*
X13632757Y-9886614D01*
X13661328Y-9872329D01*
X13675614Y-9858043D01*
X13689900Y-9829472D01*
X13689900Y-9758043D01*
X13675614Y-9729472D01*
X13661328Y-9715186D01*
X13632757Y-9700900D01*
X13575614Y-9700900D01*
X13547043Y-9715186D01*
X13532757Y-9729472D01*
X13518471Y-9758043D01*
X13804186Y-9586614D02*
X13804186Y-9643757D01*
X13918471Y-9586614D02*
X13918471Y-9643757D01*
X14361328Y-10000900D02*
X14347043Y-9986614D01*
X14318471Y-9943757D01*
X14304186Y-9915186D01*
X14289900Y-9872329D01*
X14275614Y-9800900D01*
X14275614Y-9743757D01*
X14289900Y-9672329D01*
X14304186Y-9629472D01*
X14318471Y-9600900D01*
X14347043Y-9558043D01*
X14361328Y-9543757D01*
X14618471Y-9586614D02*
X14475614Y-9586614D01*
X14461328Y-9729472D01*
X14475614Y-9715186D01*
X14504186Y-9700900D01*
X14575614Y-9700900D01*
X14604186Y-9715186D01*
X14618471Y-9729472D01*
X14632757Y-9758043D01*
X14632757Y-9829472D01*
X14618471Y-9858043D01*
X14604186Y-9872329D01*
X14575614Y-9886614D01*
X14504186Y-9886614D01*
X14475614Y-9872329D01*
X14461328Y-9858043D01*
X14747043Y-9615186D02*
X14761328Y-9600900D01*
X14789900Y-9586614D01*
X14861328Y-9586614D01*
X14889900Y-9600900D01*
X14904186Y-9615186D01*
X14918471Y-9643757D01*
X14918471Y-9672329D01*
X14904186Y-9715186D01*
X14732757Y-9886614D01*
X14918471Y-9886614D01*
X15275614Y-9886614D02*
X15275614Y-9586614D01*
X15404186Y-9886614D02*
X15404186Y-9729472D01*
X15389900Y-9700900D01*
X15361328Y-9686614D01*
X15318471Y-9686614D01*
X15289900Y-9700900D01*
X15275614Y-9715186D01*
X15589900Y-9886614D02*
X15561328Y-9872329D01*
X15547043Y-9858043D01*
X15532757Y-9829472D01*
X15532757Y-9743757D01*
X15547043Y-9715186D01*
X15561328Y-9700900D01*
X15589900Y-9686614D01*
X15632757Y-9686614D01*
X15661328Y-9700900D01*
X15675614Y-9715186D01*
X15689900Y-9743757D01*
X15689900Y-9829472D01*
X15675614Y-9858043D01*
X15661328Y-9872329D01*
X15632757Y-9886614D01*
X15589900Y-9886614D01*
X15861328Y-9886614D02*
X15832757Y-9872329D01*
X15818471Y-9843757D01*
X15818471Y-9586614D01*
X16089900Y-9872329D02*
X16061328Y-9886614D01*
X16004186Y-9886614D01*
X15975614Y-9872329D01*
X15961328Y-9843757D01*
X15961328Y-9729472D01*
X15975614Y-9700900D01*
X16004186Y-9686614D01*
X16061328Y-9686614D01*
X16089900Y-9700900D01*
X16104186Y-9729472D01*
X16104186Y-9758043D01*
X15961328Y-9786614D01*
X16218471Y-9872329D02*
X16247043Y-9886614D01*
X16304186Y-9886614D01*
X16332757Y-9872329D01*
X16347043Y-9843757D01*
X16347043Y-9829472D01*
X16332757Y-9800900D01*
X16304186Y-9786614D01*
X16261328Y-9786614D01*
X16232757Y-9772329D01*
X16218471Y-9743757D01*
X16218471Y-9729472D01*
X16232757Y-9700900D01*
X16261328Y-9686614D01*
X16304186Y-9686614D01*
X16332757Y-9700900D01*
X16447043Y-10000900D02*
X16461328Y-9986614D01*
X16489900Y-9943757D01*
X16504186Y-9915186D01*
X16518471Y-9872329D01*
X16532757Y-9800900D01*
X16532757Y-9743757D01*
X16518471Y-9672329D01*
X16504186Y-9629472D01*
X16489900Y-9600900D01*
X16461328Y-9558043D01*
X16447043Y-9543757D01*
X9674900Y-10146900D02*
G75*
G03*
X9674900Y-10146900I-40000J0D01*
G01*
X10018471Y-9982614D02*
X10047043Y-9982614D01*
X10075614Y-9996900D01*
X10089900Y-10011186D01*
X10104186Y-10039757D01*
X10118471Y-10096900D01*
X10118471Y-10168329D01*
X10104186Y-10225472D01*
X10089900Y-10254043D01*
X10075614Y-10268329D01*
X10047043Y-10282614D01*
X10018471Y-10282614D01*
X9989900Y-10268329D01*
X9975614Y-10254043D01*
X9961328Y-10225472D01*
X9947043Y-10168329D01*
X9947043Y-10096900D01*
X9961328Y-10039757D01*
X9975614Y-10011186D01*
X9989900Y-9996900D01*
X10018471Y-9982614D01*
X10247043Y-10254043D02*
X10261328Y-10268329D01*
X10247043Y-10282614D01*
X10232757Y-10268329D01*
X10247043Y-10254043D01*
X10247043Y-10282614D01*
X10432757Y-10111186D02*
X10404186Y-10096900D01*
X10389900Y-10082614D01*
X10375614Y-10054043D01*
X10375614Y-10039757D01*
X10389900Y-10011186D01*
X10404186Y-9996900D01*
X10432757Y-9982614D01*
X10489900Y-9982614D01*
X10518471Y-9996900D01*
X10532757Y-10011186D01*
X10547043Y-10039757D01*
X10547043Y-10054043D01*
X10532757Y-10082614D01*
X10518471Y-10096900D01*
X10489900Y-10111186D01*
X10432757Y-10111186D01*
X10404186Y-10125472D01*
X10389900Y-10139757D01*
X10375614Y-10168329D01*
X10375614Y-10225472D01*
X10389900Y-10254043D01*
X10404186Y-10268329D01*
X10432757Y-10282614D01*
X10489900Y-10282614D01*
X10518471Y-10268329D01*
X10532757Y-10254043D01*
X10547043Y-10225472D01*
X10547043Y-10168329D01*
X10532757Y-10139757D01*
X10518471Y-10125472D01*
X10489900Y-10111186D01*
X10732757Y-9982614D02*
X10761328Y-9982614D01*
X10789900Y-9996900D01*
X10804186Y-10011186D01*
X10818471Y-10039757D01*
X10832757Y-10096900D01*
X10832757Y-10168329D01*
X10818471Y-10225472D01*
X10804186Y-10254043D01*
X10789900Y-10268329D01*
X10761328Y-10282614D01*
X10732757Y-10282614D01*
X10704186Y-10268329D01*
X10689900Y-10254043D01*
X10675614Y-10225472D01*
X10661328Y-10168329D01*
X10661328Y-10096900D01*
X10675614Y-10039757D01*
X10689900Y-10011186D01*
X10704186Y-9996900D01*
X10732757Y-9982614D01*
X10961328Y-10282614D02*
X10961328Y-10082614D01*
X10961328Y-10111186D02*
X10975614Y-10096900D01*
X11004186Y-10082614D01*
X11047043Y-10082614D01*
X11075614Y-10096900D01*
X11089900Y-10125472D01*
X11089900Y-10282614D01*
X11089900Y-10125472D02*
X11104186Y-10096900D01*
X11132757Y-10082614D01*
X11175614Y-10082614D01*
X11204186Y-10096900D01*
X11218471Y-10125472D01*
X11218471Y-10282614D01*
X11361328Y-10282614D02*
X11361328Y-10082614D01*
X11361328Y-10111186D02*
X11375614Y-10096900D01*
X11404186Y-10082614D01*
X11447043Y-10082614D01*
X11475614Y-10096900D01*
X11489900Y-10125472D01*
X11489900Y-10282614D01*
X11489900Y-10125472D02*
X11504186Y-10096900D01*
X11532757Y-10082614D01*
X11575614Y-10082614D01*
X11604186Y-10096900D01*
X11618471Y-10125472D01*
X11618471Y-10282614D01*
X12204186Y-9968329D02*
X11947043Y-10354043D01*
X12589900Y-9982614D02*
X12618471Y-9982614D01*
X12647043Y-9996900D01*
X12661328Y-10011186D01*
X12675614Y-10039757D01*
X12689900Y-10096900D01*
X12689900Y-10168329D01*
X12675614Y-10225472D01*
X12661328Y-10254043D01*
X12647043Y-10268329D01*
X12618471Y-10282614D01*
X12589900Y-10282614D01*
X12561328Y-10268329D01*
X12547043Y-10254043D01*
X12532757Y-10225472D01*
X12518471Y-10168329D01*
X12518471Y-10096900D01*
X12532757Y-10039757D01*
X12547043Y-10011186D01*
X12561328Y-9996900D01*
X12589900Y-9982614D01*
X12818471Y-10254043D02*
X12832757Y-10268329D01*
X12818471Y-10282614D01*
X12804186Y-10268329D01*
X12818471Y-10254043D01*
X12818471Y-10282614D01*
X13018471Y-9982614D02*
X13047043Y-9982614D01*
X13075614Y-9996900D01*
X13089900Y-10011186D01*
X13104186Y-10039757D01*
X13118471Y-10096900D01*
X13118471Y-10168329D01*
X13104186Y-10225472D01*
X13089900Y-10254043D01*
X13075614Y-10268329D01*
X13047043Y-10282614D01*
X13018471Y-10282614D01*
X12989900Y-10268329D01*
X12975614Y-10254043D01*
X12961328Y-10225472D01*
X12947043Y-10168329D01*
X12947043Y-10096900D01*
X12961328Y-10039757D01*
X12975614Y-10011186D01*
X12989900Y-9996900D01*
X13018471Y-9982614D01*
X13218471Y-9982614D02*
X13404186Y-9982614D01*
X13304186Y-10096900D01*
X13347043Y-10096900D01*
X13375614Y-10111186D01*
X13389900Y-10125472D01*
X13404186Y-10154043D01*
X13404186Y-10225472D01*
X13389900Y-10254043D01*
X13375614Y-10268329D01*
X13347043Y-10282614D01*
X13261328Y-10282614D01*
X13232757Y-10268329D01*
X13218471Y-10254043D01*
X13689900Y-10282614D02*
X13518471Y-10282614D01*
X13604186Y-10282614D02*
X13604186Y-9982614D01*
X13575614Y-10025472D01*
X13547043Y-10054043D01*
X13518471Y-10068329D01*
X13804186Y-9982614D02*
X13804186Y-10039757D01*
X13918471Y-9982614D02*
X13918471Y-10039757D01*
X14361328Y-10396900D02*
X14347043Y-10382614D01*
X14318471Y-10339757D01*
X14304186Y-10311186D01*
X14289900Y-10268329D01*
X14275614Y-10196900D01*
X14275614Y-10139757D01*
X14289900Y-10068329D01*
X14304186Y-10025472D01*
X14318471Y-9996900D01*
X14347043Y-9954043D01*
X14361328Y-9939757D01*
X14461328Y-10011186D02*
X14475614Y-9996900D01*
X14504186Y-9982614D01*
X14575614Y-9982614D01*
X14604186Y-9996900D01*
X14618471Y-10011186D01*
X14632757Y-10039757D01*
X14632757Y-10068329D01*
X14618471Y-10111186D01*
X14447043Y-10282614D01*
X14632757Y-10282614D01*
X14747043Y-10011186D02*
X14761328Y-9996900D01*
X14789900Y-9982614D01*
X14861328Y-9982614D01*
X14889900Y-9996900D01*
X14904186Y-10011186D01*
X14918471Y-10039757D01*
X14918471Y-10068329D01*
X14904186Y-10111186D01*
X14732757Y-10282614D01*
X14918471Y-10282614D01*
X15275614Y-10282614D02*
X15275614Y-9982614D01*
X15404186Y-10282614D02*
X15404186Y-10125472D01*
X15389900Y-10096900D01*
X15361328Y-10082614D01*
X15318471Y-10082614D01*
X15289900Y-10096900D01*
X15275614Y-10111186D01*
X15589900Y-10282614D02*
X15561328Y-10268329D01*
X15547043Y-10254043D01*
X15532757Y-10225472D01*
X15532757Y-10139757D01*
X15547043Y-10111186D01*
X15561328Y-10096900D01*
X15589900Y-10082614D01*
X15632757Y-10082614D01*
X15661328Y-10096900D01*
X15675614Y-10111186D01*
X15689900Y-10139757D01*
X15689900Y-10225472D01*
X15675614Y-10254043D01*
X15661328Y-10268329D01*
X15632757Y-10282614D01*
X15589900Y-10282614D01*
X15861328Y-10282614D02*
X15832757Y-10268329D01*
X15818471Y-10239757D01*
X15818471Y-9982614D01*
X16089900Y-10268329D02*
X16061328Y-10282614D01*
X16004186Y-10282614D01*
X15975614Y-10268329D01*
X15961328Y-10239757D01*
X15961328Y-10125472D01*
X15975614Y-10096900D01*
X16004186Y-10082614D01*
X16061328Y-10082614D01*
X16089900Y-10096900D01*
X16104186Y-10125472D01*
X16104186Y-10154043D01*
X15961328Y-10182614D01*
X16218471Y-10268329D02*
X16247043Y-10282614D01*
X16304186Y-10282614D01*
X16332757Y-10268329D01*
X16347043Y-10239757D01*
X16347043Y-10225472D01*
X16332757Y-10196900D01*
X16304186Y-10182614D01*
X16261328Y-10182614D01*
X16232757Y-10168329D01*
X16218471Y-10139757D01*
X16218471Y-10125472D01*
X16232757Y-10096900D01*
X16261328Y-10082614D01*
X16304186Y-10082614D01*
X16332757Y-10096900D01*
X16447043Y-10396900D02*
X16461328Y-10382614D01*
X16489900Y-10339757D01*
X16504186Y-10311186D01*
X16518471Y-10268329D01*
X16532757Y-10196900D01*
X16532757Y-10139757D01*
X16518471Y-10068329D01*
X16504186Y-10025472D01*
X16489900Y-9996900D01*
X16461328Y-9954043D01*
X16447043Y-9939757D01*
X9620290Y-10488290D02*
X9620290Y-10597510D01*
X9565680Y-10542900D02*
X9674900Y-10542900D01*
X10118471Y-10678614D02*
X9947043Y-10678614D01*
X10032757Y-10678614D02*
X10032757Y-10378614D01*
X10004186Y-10421472D01*
X9975614Y-10450043D01*
X9947043Y-10464329D01*
X10247043Y-10650043D02*
X10261328Y-10664329D01*
X10247043Y-10678614D01*
X10232757Y-10664329D01*
X10247043Y-10650043D01*
X10247043Y-10678614D01*
X10447043Y-10378614D02*
X10475614Y-10378614D01*
X10504186Y-10392900D01*
X10518471Y-10407186D01*
X10532757Y-10435757D01*
X10547043Y-10492900D01*
X10547043Y-10564329D01*
X10532757Y-10621472D01*
X10518471Y-10650043D01*
X10504186Y-10664329D01*
X10475614Y-10678614D01*
X10447043Y-10678614D01*
X10418471Y-10664329D01*
X10404186Y-10650043D01*
X10389900Y-10621472D01*
X10375614Y-10564329D01*
X10375614Y-10492900D01*
X10389900Y-10435757D01*
X10404186Y-10407186D01*
X10418471Y-10392900D01*
X10447043Y-10378614D01*
X10689900Y-10678614D02*
X10747043Y-10678614D01*
X10775614Y-10664329D01*
X10789900Y-10650043D01*
X10818471Y-10607186D01*
X10832757Y-10550043D01*
X10832757Y-10435757D01*
X10818471Y-10407186D01*
X10804186Y-10392900D01*
X10775614Y-10378614D01*
X10718471Y-10378614D01*
X10689900Y-10392900D01*
X10675614Y-10407186D01*
X10661328Y-10435757D01*
X10661328Y-10507186D01*
X10675614Y-10535757D01*
X10689900Y-10550043D01*
X10718471Y-10564329D01*
X10775614Y-10564329D01*
X10804186Y-10550043D01*
X10818471Y-10535757D01*
X10832757Y-10507186D01*
X10961328Y-10678614D02*
X10961328Y-10478614D01*
X10961328Y-10507186D02*
X10975614Y-10492900D01*
X11004186Y-10478614D01*
X11047043Y-10478614D01*
X11075614Y-10492900D01*
X11089900Y-10521472D01*
X11089900Y-10678614D01*
X11089900Y-10521472D02*
X11104186Y-10492900D01*
X11132757Y-10478614D01*
X11175614Y-10478614D01*
X11204186Y-10492900D01*
X11218471Y-10521472D01*
X11218471Y-10678614D01*
X11361328Y-10678614D02*
X11361328Y-10478614D01*
X11361328Y-10507186D02*
X11375614Y-10492900D01*
X11404186Y-10478614D01*
X11447043Y-10478614D01*
X11475614Y-10492900D01*
X11489900Y-10521472D01*
X11489900Y-10678614D01*
X11489900Y-10521472D02*
X11504186Y-10492900D01*
X11532757Y-10478614D01*
X11575614Y-10478614D01*
X11604186Y-10492900D01*
X11618471Y-10521472D01*
X11618471Y-10678614D01*
X12204186Y-10364329D02*
X11947043Y-10750043D01*
X12589900Y-10378614D02*
X12618471Y-10378614D01*
X12647043Y-10392900D01*
X12661328Y-10407186D01*
X12675614Y-10435757D01*
X12689900Y-10492900D01*
X12689900Y-10564329D01*
X12675614Y-10621472D01*
X12661328Y-10650043D01*
X12647043Y-10664329D01*
X12618471Y-10678614D01*
X12589900Y-10678614D01*
X12561328Y-10664329D01*
X12547043Y-10650043D01*
X12532757Y-10621472D01*
X12518471Y-10564329D01*
X12518471Y-10492900D01*
X12532757Y-10435757D01*
X12547043Y-10407186D01*
X12561328Y-10392900D01*
X12589900Y-10378614D01*
X12818471Y-10650043D02*
X12832757Y-10664329D01*
X12818471Y-10678614D01*
X12804186Y-10664329D01*
X12818471Y-10650043D01*
X12818471Y-10678614D01*
X13018471Y-10378614D02*
X13047043Y-10378614D01*
X13075614Y-10392900D01*
X13089900Y-10407186D01*
X13104186Y-10435757D01*
X13118471Y-10492900D01*
X13118471Y-10564329D01*
X13104186Y-10621472D01*
X13089900Y-10650043D01*
X13075614Y-10664329D01*
X13047043Y-10678614D01*
X13018471Y-10678614D01*
X12989900Y-10664329D01*
X12975614Y-10650043D01*
X12961328Y-10621472D01*
X12947043Y-10564329D01*
X12947043Y-10492900D01*
X12961328Y-10435757D01*
X12975614Y-10407186D01*
X12989900Y-10392900D01*
X13018471Y-10378614D01*
X13375614Y-10478614D02*
X13375614Y-10678614D01*
X13304186Y-10364329D02*
X13232757Y-10578614D01*
X13418471Y-10578614D01*
X13504186Y-10378614D02*
X13689900Y-10378614D01*
X13589900Y-10492900D01*
X13632757Y-10492900D01*
X13661328Y-10507186D01*
X13675614Y-10521472D01*
X13689900Y-10550043D01*
X13689900Y-10621472D01*
X13675614Y-10650043D01*
X13661328Y-10664329D01*
X13632757Y-10678614D01*
X13547043Y-10678614D01*
X13518471Y-10664329D01*
X13504186Y-10650043D01*
X13804186Y-10378614D02*
X13804186Y-10435757D01*
X13918471Y-10378614D02*
X13918471Y-10435757D01*
X14361328Y-10792900D02*
X14347043Y-10778614D01*
X14318471Y-10735757D01*
X14304186Y-10707186D01*
X14289900Y-10664329D01*
X14275614Y-10592900D01*
X14275614Y-10535757D01*
X14289900Y-10464329D01*
X14304186Y-10421472D01*
X14318471Y-10392900D01*
X14347043Y-10350043D01*
X14361328Y-10335757D01*
X14518471Y-10507186D02*
X14489900Y-10492900D01*
X14475614Y-10478614D01*
X14461328Y-10450043D01*
X14461328Y-10435757D01*
X14475614Y-10407186D01*
X14489900Y-10392900D01*
X14518471Y-10378614D01*
X14575614Y-10378614D01*
X14604186Y-10392900D01*
X14618471Y-10407186D01*
X14632757Y-10435757D01*
X14632757Y-10450043D01*
X14618471Y-10478614D01*
X14604186Y-10492900D01*
X14575614Y-10507186D01*
X14518471Y-10507186D01*
X14489900Y-10521472D01*
X14475614Y-10535757D01*
X14461328Y-10564329D01*
X14461328Y-10621472D01*
X14475614Y-10650043D01*
X14489900Y-10664329D01*
X14518471Y-10678614D01*
X14575614Y-10678614D01*
X14604186Y-10664329D01*
X14618471Y-10650043D01*
X14632757Y-10621472D01*
X14632757Y-10564329D01*
X14618471Y-10535757D01*
X14604186Y-10521472D01*
X14575614Y-10507186D01*
X14889900Y-10378614D02*
X14832757Y-10378614D01*
X14804186Y-10392900D01*
X14789900Y-10407186D01*
X14761328Y-10450043D01*
X14747043Y-10507186D01*
X14747043Y-10621472D01*
X14761328Y-10650043D01*
X14775614Y-10664329D01*
X14804186Y-10678614D01*
X14861328Y-10678614D01*
X14889900Y-10664329D01*
X14904186Y-10650043D01*
X14918471Y-10621472D01*
X14918471Y-10550043D01*
X14904186Y-10521472D01*
X14889900Y-10507186D01*
X14861328Y-10492900D01*
X14804186Y-10492900D01*
X14775614Y-10507186D01*
X14761328Y-10521472D01*
X14747043Y-10550043D01*
X15275614Y-10678614D02*
X15275614Y-10378614D01*
X15404186Y-10678614D02*
X15404186Y-10521472D01*
X15389900Y-10492900D01*
X15361328Y-10478614D01*
X15318471Y-10478614D01*
X15289900Y-10492900D01*
X15275614Y-10507186D01*
X15589900Y-10678614D02*
X15561328Y-10664329D01*
X15547043Y-10650043D01*
X15532757Y-10621472D01*
X15532757Y-10535757D01*
X15547043Y-10507186D01*
X15561328Y-10492900D01*
X15589900Y-10478614D01*
X15632757Y-10478614D01*
X15661328Y-10492900D01*
X15675614Y-10507186D01*
X15689900Y-10535757D01*
X15689900Y-10621472D01*
X15675614Y-10650043D01*
X15661328Y-10664329D01*
X15632757Y-10678614D01*
X15589900Y-10678614D01*
X15861328Y-10678614D02*
X15832757Y-10664329D01*
X15818471Y-10635757D01*
X15818471Y-10378614D01*
X16089900Y-10664329D02*
X16061328Y-10678614D01*
X16004186Y-10678614D01*
X15975614Y-10664329D01*
X15961328Y-10635757D01*
X15961328Y-10521472D01*
X15975614Y-10492900D01*
X16004186Y-10478614D01*
X16061328Y-10478614D01*
X16089900Y-10492900D01*
X16104186Y-10521472D01*
X16104186Y-10550043D01*
X15961328Y-10578614D01*
X16218471Y-10664329D02*
X16247043Y-10678614D01*
X16304186Y-10678614D01*
X16332757Y-10664329D01*
X16347043Y-10635757D01*
X16347043Y-10621472D01*
X16332757Y-10592900D01*
X16304186Y-10578614D01*
X16261328Y-10578614D01*
X16232757Y-10564329D01*
X16218471Y-10535757D01*
X16218471Y-10521472D01*
X16232757Y-10492900D01*
X16261328Y-10478614D01*
X16304186Y-10478614D01*
X16332757Y-10492900D01*
X16447043Y-10792900D02*
X16461328Y-10778614D01*
X16489900Y-10735757D01*
X16504186Y-10707186D01*
X16518471Y-10664329D01*
X16532757Y-10592900D01*
X16532757Y-10535757D01*
X16518471Y-10464329D01*
X16504186Y-10421472D01*
X16489900Y-10392900D01*
X16461328Y-10350043D01*
X16447043Y-10335757D01*
M02*
