M48
; DRILL file {KiCad (5.1.6)-1} date 11/05/22 15:29:06
; FORMAT={-:-/ absolute / metric / decimal}
; #@! TF.CreationDate,2022-11-05T15:29:06-04:00
; #@! TF.GenerationSoftware,Kicad,Pcbnew,(5.1.6)-1
; #@! TF.FileFunction,Plated,1,4,PTH
FMAT,2
METRIC
T1C0.400
T2C0.800
T3C1.092
%
G90
G05
T1
X101.092Y-64.77
X101.092Y-69.342
X102.87Y-78.486
X104.38Y-77.71
X109.768Y-71.08
X110.607Y-70.4
X111.368Y-69.7
X111.468Y-68.226
X112.106Y-69.0
X114.046Y-64.262
X115.316Y-77.216
X116.332Y-67.526
X118.618Y-66.802
X120.142Y-66.802
X121.158Y-71.882
X122.428Y-74.93
X123.698Y-74.967
X126.238Y-74.93
X127.508Y-69.596
X127.508Y-72.136
X128.778Y-72.136
X130.048Y-74.93
X140.97Y-64.262
X141.732Y-76.454
X143.002Y-67.818
X143.256Y-77.216
X145.039Y-77.729
X147.019Y-71.882
X147.066Y-77.216
X149.352Y-67.818
X149.606Y-77.216
X152.146Y-77.216
X153.294Y-67.94
X153.294Y-70.998
X154.686Y-68.58
X155.644Y-63.812
X156.972Y-76.962
X159.004Y-76.962
X171.196Y-64.77
X171.196Y-69.342
X175.006Y-64.516
X177.8Y-64.516
X180.34Y-64.516
X181.356Y-73.914
X182.626Y-73.914
X183.896Y-73.914
X185.166Y-73.914
X189.484Y-70.996
X190.368Y-70.296
X191.262Y-69.596
X198.882Y-73.66
X216.916Y-64.008
T2
X196.852Y-66.326
X196.852Y-68.326
X198.852Y-66.326
X198.852Y-68.326
X200.852Y-66.326
X200.852Y-68.326
X202.852Y-66.326
X202.852Y-68.326
X204.852Y-66.326
X204.852Y-68.326
X206.852Y-66.326
X206.852Y-68.326
X208.852Y-66.326
X208.852Y-68.326
X210.852Y-66.326
X210.852Y-68.326
X212.852Y-66.326
X212.852Y-68.326
X214.852Y-66.326
X214.852Y-68.326
X216.852Y-66.326
X216.852Y-68.326
T3
X101.621Y-80.476
X101.621Y-85.327
X104.161Y-80.476
X104.161Y-85.327
X106.701Y-80.476
X106.701Y-85.327
X109.241Y-80.476
X109.241Y-85.327
X111.781Y-80.476
X111.781Y-85.327
X114.321Y-80.476
X114.321Y-85.327
X116.861Y-80.476
X116.861Y-85.327
X119.401Y-80.476
X119.401Y-85.327
X121.941Y-80.476
X121.941Y-85.327
X124.481Y-80.476
X124.481Y-85.327
X127.021Y-80.476
X127.021Y-85.327
X129.561Y-80.476
X129.561Y-85.327
X132.101Y-80.476
X132.101Y-85.327
X134.641Y-80.476
X134.641Y-85.327
X137.181Y-80.476
X137.181Y-85.327
X139.721Y-80.476
X139.721Y-85.327
X142.261Y-80.476
X142.261Y-85.327
X144.801Y-80.476
X144.801Y-85.327
X147.341Y-80.476
X147.341Y-85.327
X149.881Y-80.476
X149.881Y-85.327
X152.421Y-80.476
X152.421Y-85.327
X154.961Y-80.476
X154.961Y-85.327
X157.501Y-80.476
X157.501Y-85.327
X160.041Y-80.476
X160.041Y-85.327
X162.581Y-80.476
X162.581Y-85.327
X165.121Y-80.476
X165.121Y-85.327
X167.661Y-80.476
X167.661Y-85.327
X170.201Y-80.476
X170.201Y-85.327
X172.741Y-80.476
X172.741Y-85.327
X175.281Y-80.476
X175.281Y-85.327
X177.821Y-80.476
X177.821Y-85.327
X180.361Y-80.476
X180.361Y-85.327
X182.901Y-80.476
X182.901Y-85.327
X185.441Y-80.476
X185.441Y-85.327
X187.981Y-80.476
X187.981Y-85.327
X190.521Y-80.476
X190.521Y-85.327
X193.061Y-80.476
X193.061Y-85.327
X195.601Y-80.476
X195.601Y-85.327
X198.141Y-80.476
X198.141Y-85.327
X200.681Y-80.476
X200.681Y-85.327
X203.221Y-80.476
X203.221Y-85.327
X205.761Y-80.476
X205.761Y-85.327
X208.301Y-80.476
X208.301Y-85.327
T0
M30
