%TF.GenerationSoftware,KiCad,Pcbnew,(5.1.6)-1*%
%TF.CreationDate,2022-11-05T15:29:04-04:00*%
%TF.ProjectId,A500-side-clockport,41353030-2d73-4696-9465-2d636c6f636b,rev?*%
%TF.SameCoordinates,Original*%
%TF.FileFunction,Soldermask,Bot*%
%TF.FilePolarity,Negative*%
%FSLAX46Y46*%
G04 Gerber Fmt 4.6, Leading zero omitted, Abs format (unit mm)*
G04 Created by KiCad (PCBNEW (5.1.6)-1) date 2022-11-05 15:29:04*
%MOMM*%
%LPD*%
G01*
G04 APERTURE LIST*
%ADD10C,1.738300*%
%ADD11R,1.738300X1.738300*%
%ADD12R,1.450000X1.450000*%
%ADD13O,1.450000X1.450000*%
G04 APERTURE END LIST*
D10*
%TO.C,BUS0*%
X101621001Y-85326901D03*
X101621001Y-80475501D03*
X104161001Y-85326901D03*
X104161001Y-80475501D03*
X106701001Y-85326901D03*
X106701001Y-80475501D03*
X109241001Y-85326901D03*
X109241001Y-80475501D03*
X111781001Y-85326901D03*
X111781001Y-80475501D03*
X114321001Y-85326901D03*
X114321001Y-80475501D03*
X116861001Y-85326901D03*
X116861001Y-80475501D03*
X119401001Y-85326901D03*
X119401001Y-80475501D03*
X121941001Y-85326901D03*
X121941001Y-80475501D03*
X124481001Y-85326901D03*
X124481001Y-80475501D03*
X127021001Y-85326901D03*
X127021001Y-80475501D03*
X129561001Y-85326901D03*
X129561001Y-80475501D03*
X132101001Y-85326901D03*
X132101001Y-80475501D03*
X134641001Y-85326901D03*
X134641001Y-80475501D03*
X137181001Y-85326901D03*
X137181001Y-80475501D03*
X139721001Y-85326901D03*
X139721001Y-80475501D03*
X142261001Y-85326901D03*
X142261001Y-80475501D03*
X144801001Y-85326901D03*
X144801001Y-80475501D03*
X147341001Y-85326901D03*
X147341001Y-80475501D03*
X149881001Y-85326901D03*
X149881001Y-80475501D03*
X152421001Y-85326901D03*
X152421001Y-80475501D03*
X154961001Y-85326901D03*
X154961001Y-80475501D03*
X157501001Y-85326901D03*
X157501001Y-80475501D03*
X160041001Y-85326901D03*
X160041001Y-80475501D03*
X162581001Y-85326901D03*
X162581001Y-80475501D03*
X165121001Y-85326901D03*
X165121001Y-80475501D03*
X167661001Y-85326901D03*
X167661001Y-80475501D03*
X170201001Y-85326901D03*
X170201001Y-80475501D03*
X172741001Y-85326901D03*
X172741001Y-80475501D03*
X175281001Y-85326901D03*
X175281001Y-80475501D03*
X177821001Y-85326901D03*
X177821001Y-80475501D03*
X180361001Y-85326901D03*
X180361001Y-80475501D03*
X182901001Y-85326901D03*
X182901001Y-80475501D03*
X185441001Y-85326901D03*
X185441001Y-80475501D03*
X187981001Y-85326901D03*
X187981001Y-80475501D03*
X190521001Y-85326901D03*
X190521001Y-80475501D03*
X193061001Y-85326901D03*
X193061001Y-80475501D03*
X195601001Y-85326901D03*
X195601001Y-80475501D03*
X198141001Y-85326901D03*
X198141001Y-80475501D03*
X200681001Y-85326901D03*
X200681001Y-80475501D03*
X203221001Y-85326901D03*
X203221001Y-80475501D03*
X205761001Y-85326901D03*
X205761001Y-80475501D03*
X208301001Y-85326901D03*
D11*
X208301001Y-80475501D03*
%TD*%
D12*
%TO.C,J0*%
X196852000Y-68326000D03*
D13*
X196852000Y-66326000D03*
X198852000Y-68326000D03*
X198852000Y-66326000D03*
X200852000Y-68326000D03*
X200852000Y-66326000D03*
X202852000Y-68326000D03*
X202852000Y-66326000D03*
X204852000Y-68326000D03*
X204852000Y-66326000D03*
X206852000Y-68326000D03*
X206852000Y-66326000D03*
X208852000Y-68326000D03*
X208852000Y-66326000D03*
X210852000Y-68326000D03*
X210852000Y-66326000D03*
X212852000Y-68326000D03*
X212852000Y-66326000D03*
X214852000Y-68326000D03*
X214852000Y-66326000D03*
X216852000Y-68326000D03*
X216852000Y-66326000D03*
%TD*%
M02*
